<mxfile host="app.diagrams.net" agent="Mozilla/5.0 (Windows NT 10.0; Win64; x64) AppleWebKit/537.36 (KHTML, like Gecko) Chrome/129.0.0.0 Safari/537.36" version="24.7.17" pages="2">
  <diagram name="Pagina-1" id="7KzPKg3WhJmzoh9JIXy9">
    <mxGraphModel dx="1225" dy="3087" grid="1" gridSize="10" guides="1" tooltips="1" connect="1" arrows="1" fold="1" page="1" pageScale="1" pageWidth="827" pageHeight="1169" math="0" shadow="0">
      <root>
        <mxCell id="0" />
        <mxCell id="1" parent="0" />
        <mxCell id="0ZL2iDHdaO8FsWFmKYgW-1" value="Bier bekijken" style="ellipse;whiteSpace=wrap;html=1;" vertex="1" parent="1">
          <mxGeometry x="400" y="-2180" width="110" height="50" as="geometry" />
        </mxCell>
        <mxCell id="0ZL2iDHdaO8FsWFmKYgW-9" value="Klant" style="shape=umlActor;verticalLabelPosition=bottom;verticalAlign=top;html=1;outlineConnect=0;" vertex="1" parent="1">
          <mxGeometry x="50" y="-2180" width="40" height="80" as="geometry" />
        </mxCell>
        <mxCell id="0ZL2iDHdaO8FsWFmKYgW-17" value="" style="endArrow=none;html=1;rounded=0;" edge="1" parent="1">
          <mxGeometry width="50" height="50" relative="1" as="geometry">
            <mxPoint x="120" y="-1240" as="sourcePoint" />
            <mxPoint x="120" y="-2240" as="targetPoint" />
          </mxGeometry>
        </mxCell>
        <mxCell id="0ZL2iDHdaO8FsWFmKYgW-18" value="" style="endArrow=none;html=1;rounded=0;" edge="1" parent="1">
          <mxGeometry width="50" height="50" relative="1" as="geometry">
            <mxPoint x="1640" y="-2240" as="sourcePoint" />
            <mxPoint x="120" y="-2240" as="targetPoint" />
          </mxGeometry>
        </mxCell>
        <mxCell id="0ZL2iDHdaO8FsWFmKYgW-19" value="" style="endArrow=none;html=1;rounded=0;" edge="1" parent="1">
          <mxGeometry width="50" height="50" relative="1" as="geometry">
            <mxPoint x="1640" y="-1240" as="sourcePoint" />
            <mxPoint x="120" y="-1240" as="targetPoint" />
          </mxGeometry>
        </mxCell>
        <mxCell id="0ZL2iDHdaO8FsWFmKYgW-20" value="" style="endArrow=none;html=1;rounded=0;" edge="1" parent="1">
          <mxGeometry width="50" height="50" relative="1" as="geometry">
            <mxPoint x="1640" y="-1240" as="sourcePoint" />
            <mxPoint x="1640" y="-2240" as="targetPoint" />
          </mxGeometry>
        </mxCell>
        <mxCell id="0ZL2iDHdaO8FsWFmKYgW-59" style="rounded=0;orthogonalLoop=1;jettySize=auto;html=1;exitX=1;exitY=0;exitDx=0;exitDy=0;entryX=0;entryY=0.5;entryDx=0;entryDy=0;" edge="1" parent="1" source="0ZL2iDHdaO8FsWFmKYgW-48" target="0ZL2iDHdaO8FsWFmKYgW-49">
          <mxGeometry relative="1" as="geometry">
            <Array as="points">
              <mxPoint x="300" y="-1725" />
            </Array>
          </mxGeometry>
        </mxCell>
        <mxCell id="0ZL2iDHdaO8FsWFmKYgW-60" style="rounded=0;orthogonalLoop=1;jettySize=auto;html=1;exitX=1;exitY=1;exitDx=0;exitDy=0;entryX=0;entryY=0.5;entryDx=0;entryDy=0;" edge="1" parent="1" source="0ZL2iDHdaO8FsWFmKYgW-48" target="0ZL2iDHdaO8FsWFmKYgW-58">
          <mxGeometry relative="1" as="geometry">
            <Array as="points">
              <mxPoint x="300" y="-1645" />
            </Array>
          </mxGeometry>
        </mxCell>
        <mxCell id="0ZL2iDHdaO8FsWFmKYgW-48" value="Inloggen" style="ellipse;whiteSpace=wrap;html=1;" vertex="1" parent="1">
          <mxGeometry x="180" y="-1710" width="110" height="50" as="geometry" />
        </mxCell>
        <mxCell id="0ZL2iDHdaO8FsWFmKYgW-49" value="Account aanmaken" style="ellipse;whiteSpace=wrap;html=1;" vertex="1" parent="1">
          <mxGeometry x="359" y="-1750" width="110" height="50" as="geometry" />
        </mxCell>
        <mxCell id="0ZL2iDHdaO8FsWFmKYgW-54" style="rounded=0;orthogonalLoop=1;jettySize=auto;html=1;exitX=1;exitY=0;exitDx=0;exitDy=0;entryX=0;entryY=0.5;entryDx=0;entryDy=0;" edge="1" parent="1" source="0ZL2iDHdaO8FsWFmKYgW-52" target="0ZL2iDHdaO8FsWFmKYgW-1">
          <mxGeometry relative="1" as="geometry">
            <Array as="points">
              <mxPoint x="330" y="-2155" />
            </Array>
          </mxGeometry>
        </mxCell>
        <mxCell id="0ZL2iDHdaO8FsWFmKYgW-55" style="rounded=0;orthogonalLoop=1;jettySize=auto;html=1;exitX=1;exitY=1;exitDx=0;exitDy=0;entryX=0;entryY=0.5;entryDx=0;entryDy=0;" edge="1" parent="1" source="0ZL2iDHdaO8FsWFmKYgW-52" target="0ZL2iDHdaO8FsWFmKYgW-53">
          <mxGeometry relative="1" as="geometry">
            <Array as="points">
              <mxPoint x="330" y="-2075" />
            </Array>
          </mxGeometry>
        </mxCell>
        <mxCell id="0ZL2iDHdaO8FsWFmKYgW-52" value="Producten bekijken" style="ellipse;whiteSpace=wrap;html=1;" vertex="1" parent="1">
          <mxGeometry x="200" y="-2140" width="110" height="50" as="geometry" />
        </mxCell>
        <mxCell id="0ZL2iDHdaO8FsWFmKYgW-53" value="Overige producten bekijken" style="ellipse;whiteSpace=wrap;html=1;" vertex="1" parent="1">
          <mxGeometry x="400" y="-2100" width="110" height="50" as="geometry" />
        </mxCell>
        <mxCell id="0ZL2iDHdaO8FsWFmKYgW-56" value="&amp;lt;&amp;lt;extend&amp;gt;&amp;gt;" style="text;html=1;align=center;verticalAlign=middle;whiteSpace=wrap;rounded=0;" vertex="1" parent="1">
          <mxGeometry x="340" y="-2180" width="50" height="25" as="geometry" />
        </mxCell>
        <mxCell id="0ZL2iDHdaO8FsWFmKYgW-57" value="&amp;lt;&amp;lt;extend&amp;gt;&amp;gt;" style="text;html=1;align=center;verticalAlign=middle;whiteSpace=wrap;rounded=0;" vertex="1" parent="1">
          <mxGeometry x="340" y="-2100" width="50" height="25" as="geometry" />
        </mxCell>
        <mxCell id="0ZL2iDHdaO8FsWFmKYgW-80" style="edgeStyle=orthogonalEdgeStyle;rounded=0;orthogonalLoop=1;jettySize=auto;html=1;exitX=1;exitY=0.5;exitDx=0;exitDy=0;entryX=0;entryY=0.5;entryDx=0;entryDy=0;" edge="1" parent="1" source="0ZL2iDHdaO8FsWFmKYgW-58" target="0ZL2iDHdaO8FsWFmKYgW-71">
          <mxGeometry relative="1" as="geometry" />
        </mxCell>
        <mxCell id="0ZL2iDHdaO8FsWFmKYgW-58" value="Bieren bestellen" style="ellipse;whiteSpace=wrap;html=1;" vertex="1" parent="1">
          <mxGeometry x="359" y="-1670" width="110" height="50" as="geometry" />
        </mxCell>
        <mxCell id="0ZL2iDHdaO8FsWFmKYgW-62" value="&amp;lt;&amp;lt;extend&amp;gt;&amp;gt;" style="text;html=1;align=center;verticalAlign=middle;whiteSpace=wrap;rounded=0;" vertex="1" parent="1">
          <mxGeometry x="300" y="-1750" width="50" height="25" as="geometry" />
        </mxCell>
        <mxCell id="0ZL2iDHdaO8FsWFmKYgW-63" value="&amp;lt;&amp;lt;extend&amp;gt;&amp;gt;" style="text;html=1;align=center;verticalAlign=middle;whiteSpace=wrap;rounded=0;" vertex="1" parent="1">
          <mxGeometry x="300" y="-1670" width="50" height="25" as="geometry" />
        </mxCell>
        <mxCell id="0ZL2iDHdaO8FsWFmKYgW-64" value="Ophalen" style="ellipse;whiteSpace=wrap;html=1;" vertex="1" parent="1">
          <mxGeometry x="900" y="-1690" width="110" height="50" as="geometry" />
        </mxCell>
        <mxCell id="0ZL2iDHdaO8FsWFmKYgW-65" value="Bezorgen" style="ellipse;whiteSpace=wrap;html=1;" vertex="1" parent="1">
          <mxGeometry x="900" y="-1770" width="110" height="50" as="geometry" />
        </mxCell>
        <mxCell id="0ZL2iDHdaO8FsWFmKYgW-66" value="Laat verpakken" style="ellipse;whiteSpace=wrap;html=1;" vertex="1" parent="1">
          <mxGeometry x="720" y="-1670" width="110" height="50" as="geometry" />
        </mxCell>
        <mxCell id="0ZL2iDHdaO8FsWFmKYgW-67" value="Review achterlaten" style="ellipse;whiteSpace=wrap;html=1;" vertex="1" parent="1">
          <mxGeometry x="720" y="-1610" width="110" height="50" as="geometry" />
        </mxCell>
        <mxCell id="0ZL2iDHdaO8FsWFmKYgW-68" style="rounded=0;orthogonalLoop=1;jettySize=auto;html=1;exitX=1;exitY=1;exitDx=0;exitDy=0;entryX=0;entryY=0.5;entryDx=0;entryDy=0;" edge="1" parent="1" source="0ZL2iDHdaO8FsWFmKYgW-71" target="0ZL2iDHdaO8FsWFmKYgW-67">
          <mxGeometry relative="1" as="geometry">
            <mxPoint x="660.0008729652601" y="-1624.822330470336" as="sourcePoint" />
            <Array as="points">
              <mxPoint x="650" y="-1585" />
            </Array>
          </mxGeometry>
        </mxCell>
        <mxCell id="0ZL2iDHdaO8FsWFmKYgW-69" style="rounded=0;orthogonalLoop=1;jettySize=auto;html=1;exitX=1;exitY=0;exitDx=0;exitDy=0;entryX=0;entryY=0.5;entryDx=0;entryDy=0;" edge="1" parent="1" source="0ZL2iDHdaO8FsWFmKYgW-71" target="0ZL2iDHdaO8FsWFmKYgW-74">
          <mxGeometry relative="1" as="geometry">
            <mxPoint x="660.0008729652601" y="-1660.1776695296635" as="sourcePoint" />
            <Array as="points">
              <mxPoint x="650" y="-1705" />
            </Array>
          </mxGeometry>
        </mxCell>
        <mxCell id="0ZL2iDHdaO8FsWFmKYgW-70" style="edgeStyle=orthogonalEdgeStyle;rounded=0;orthogonalLoop=1;jettySize=auto;html=1;exitX=1;exitY=0.5;exitDx=0;exitDy=0;entryX=0;entryY=0.5;entryDx=0;entryDy=0;" edge="1" parent="1" source="0ZL2iDHdaO8FsWFmKYgW-71" target="0ZL2iDHdaO8FsWFmKYgW-66">
          <mxGeometry relative="1" as="geometry">
            <mxPoint x="676.11" y="-1642.5" as="sourcePoint" />
          </mxGeometry>
        </mxCell>
        <mxCell id="0ZL2iDHdaO8FsWFmKYgW-71" value="Afrekenen" style="ellipse;whiteSpace=wrap;html=1;" vertex="1" parent="1">
          <mxGeometry x="530" y="-1670" width="110" height="50" as="geometry" />
        </mxCell>
        <mxCell id="0ZL2iDHdaO8FsWFmKYgW-73" style="rounded=0;orthogonalLoop=1;jettySize=auto;html=1;exitX=1;exitY=1;exitDx=0;exitDy=0;entryX=0;entryY=0.5;entryDx=0;entryDy=0;" edge="1" parent="1" source="0ZL2iDHdaO8FsWFmKYgW-74" target="0ZL2iDHdaO8FsWFmKYgW-64">
          <mxGeometry relative="1" as="geometry">
            <Array as="points">
              <mxPoint x="840" y="-1665" />
            </Array>
          </mxGeometry>
        </mxCell>
        <mxCell id="0ZL2iDHdaO8FsWFmKYgW-74" value="Leveringsmethode kiezen" style="ellipse;whiteSpace=wrap;html=1;" vertex="1" parent="1">
          <mxGeometry x="720" y="-1730" width="110" height="50" as="geometry" />
        </mxCell>
        <mxCell id="0ZL2iDHdaO8FsWFmKYgW-75" value="&amp;lt;&amp;lt;extend&amp;gt;&amp;gt;" style="text;html=1;align=center;verticalAlign=middle;whiteSpace=wrap;rounded=0;" vertex="1" parent="1">
          <mxGeometry x="650" y="-1607.5" width="60" height="20" as="geometry" />
        </mxCell>
        <mxCell id="0ZL2iDHdaO8FsWFmKYgW-77" value="&amp;lt;&amp;lt;extend&amp;gt;&amp;gt;" style="text;html=1;align=center;verticalAlign=middle;whiteSpace=wrap;rounded=0;" vertex="1" parent="1">
          <mxGeometry x="840" y="-1687.5" width="50" height="20" as="geometry" />
        </mxCell>
        <mxCell id="0ZL2iDHdaO8FsWFmKYgW-78" value="&amp;lt;&amp;lt;extend&amp;gt;&amp;gt;" style="text;html=1;align=center;verticalAlign=middle;whiteSpace=wrap;rounded=0;" vertex="1" parent="1">
          <mxGeometry x="650" y="-1667.5" width="60" height="25" as="geometry" />
        </mxCell>
        <mxCell id="0ZL2iDHdaO8FsWFmKYgW-79" value="&amp;lt;&amp;lt;extend&amp;gt;&amp;gt;" style="text;html=1;align=center;verticalAlign=middle;whiteSpace=wrap;rounded=0;" vertex="1" parent="1">
          <mxGeometry x="650" y="-1727.5" width="60" height="30" as="geometry" />
        </mxCell>
        <mxCell id="0ZL2iDHdaO8FsWFmKYgW-81" style="rounded=0;orthogonalLoop=1;jettySize=auto;html=1;exitX=1;exitY=0;exitDx=0;exitDy=0;entryX=0.003;entryY=0.542;entryDx=0;entryDy=0;entryPerimeter=0;" edge="1" parent="1" source="0ZL2iDHdaO8FsWFmKYgW-74" target="0ZL2iDHdaO8FsWFmKYgW-65">
          <mxGeometry relative="1" as="geometry">
            <Array as="points">
              <mxPoint x="840" y="-1743" />
            </Array>
          </mxGeometry>
        </mxCell>
        <mxCell id="0ZL2iDHdaO8FsWFmKYgW-82" value="&amp;lt;&amp;lt;extend&amp;gt;&amp;gt;" style="text;html=1;align=center;verticalAlign=middle;whiteSpace=wrap;rounded=0;" vertex="1" parent="1">
          <mxGeometry x="840" y="-1763" width="50" height="20" as="geometry" />
        </mxCell>
        <mxCell id="0ZL2iDHdaO8FsWFmKYgW-83" value="&amp;lt;&amp;lt;extend&amp;gt;&amp;gt;" style="text;html=1;align=center;verticalAlign=middle;whiteSpace=wrap;rounded=0;" vertex="1" parent="1">
          <mxGeometry x="470" y="-1670" width="60" height="25" as="geometry" />
        </mxCell>
      </root>
    </mxGraphModel>
  </diagram>
  <diagram id="8SViA9PPyVxPEcg7fW3t" name="Klad">
    <mxGraphModel dx="1225" dy="3087" grid="1" gridSize="10" guides="1" tooltips="1" connect="1" arrows="1" fold="1" page="1" pageScale="1" pageWidth="827" pageHeight="1169" math="0" shadow="0">
      <root>
        <mxCell id="0" />
        <mxCell id="1" parent="0" />
        <mxCell id="veHx_7h44W6bmEA8SiIX-1" style="rounded=0;orthogonalLoop=1;jettySize=auto;html=1;exitX=1;exitY=1;exitDx=0;exitDy=0;entryX=0;entryY=0.5;entryDx=0;entryDy=0;" edge="1" parent="1" source="veHx_7h44W6bmEA8SiIX-3" target="veHx_7h44W6bmEA8SiIX-13">
          <mxGeometry relative="1" as="geometry">
            <Array as="points">
              <mxPoint x="203" y="-2125" />
            </Array>
          </mxGeometry>
        </mxCell>
        <mxCell id="veHx_7h44W6bmEA8SiIX-2" style="rounded=0;orthogonalLoop=1;jettySize=auto;html=1;exitX=1;exitY=0;exitDx=0;exitDy=0;entryX=0;entryY=0.5;entryDx=0;entryDy=0;" edge="1" parent="1" source="veHx_7h44W6bmEA8SiIX-3" target="veHx_7h44W6bmEA8SiIX-9">
          <mxGeometry relative="1" as="geometry">
            <Array as="points">
              <mxPoint x="203" y="-2235" />
            </Array>
          </mxGeometry>
        </mxCell>
        <mxCell id="veHx_7h44W6bmEA8SiIX-3" value="Bieren bestellen" style="ellipse;whiteSpace=wrap;html=1;" vertex="1" parent="1">
          <mxGeometry x="83" y="-2210" width="110" height="50" as="geometry" />
        </mxCell>
        <mxCell id="veHx_7h44W6bmEA8SiIX-4" value="Ophalen" style="ellipse;whiteSpace=wrap;html=1;" vertex="1" parent="1">
          <mxGeometry x="633" y="-2180" width="110" height="50" as="geometry" />
        </mxCell>
        <mxCell id="veHx_7h44W6bmEA8SiIX-5" value="Bezorgen" style="ellipse;whiteSpace=wrap;html=1;" vertex="1" parent="1">
          <mxGeometry x="633" y="-2240" width="110" height="50" as="geometry" />
        </mxCell>
        <mxCell id="veHx_7h44W6bmEA8SiIX-6" value="Laat verpakken" style="ellipse;whiteSpace=wrap;html=1;" vertex="1" parent="1">
          <mxGeometry x="453" y="-2150" width="110" height="50" as="geometry" />
        </mxCell>
        <mxCell id="veHx_7h44W6bmEA8SiIX-7" value="Review achterlaten" style="ellipse;whiteSpace=wrap;html=1;" vertex="1" parent="1">
          <mxGeometry x="453" y="-2090" width="110" height="50" as="geometry" />
        </mxCell>
        <mxCell id="veHx_7h44W6bmEA8SiIX-8" style="rounded=0;orthogonalLoop=1;jettySize=auto;html=1;exitX=1;exitY=0.5;exitDx=0;exitDy=0;entryX=0;entryY=0.5;entryDx=0;entryDy=0;" edge="1" parent="1" source="veHx_7h44W6bmEA8SiIX-9" target="veHx_7h44W6bmEA8SiIX-23">
          <mxGeometry relative="1" as="geometry">
            <Array as="points">
              <mxPoint x="383" y="-2255" />
            </Array>
          </mxGeometry>
        </mxCell>
        <mxCell id="veHx_7h44W6bmEA8SiIX-9" value="Inloggen" style="ellipse;whiteSpace=wrap;html=1;" vertex="1" parent="1">
          <mxGeometry x="263" y="-2260" width="110" height="50" as="geometry" />
        </mxCell>
        <mxCell id="veHx_7h44W6bmEA8SiIX-10" style="rounded=0;orthogonalLoop=1;jettySize=auto;html=1;exitX=1;exitY=1;exitDx=0;exitDy=0;entryX=0;entryY=0.5;entryDx=0;entryDy=0;" edge="1" parent="1" source="veHx_7h44W6bmEA8SiIX-13" target="veHx_7h44W6bmEA8SiIX-7">
          <mxGeometry relative="1" as="geometry">
            <mxPoint x="393.0008729652601" y="-2107.322330470336" as="sourcePoint" />
            <Array as="points">
              <mxPoint x="383" y="-2065" />
            </Array>
          </mxGeometry>
        </mxCell>
        <mxCell id="veHx_7h44W6bmEA8SiIX-11" style="rounded=0;orthogonalLoop=1;jettySize=auto;html=1;exitX=1;exitY=0;exitDx=0;exitDy=0;entryX=0;entryY=0.5;entryDx=0;entryDy=0;" edge="1" parent="1" source="veHx_7h44W6bmEA8SiIX-13" target="veHx_7h44W6bmEA8SiIX-19">
          <mxGeometry relative="1" as="geometry">
            <mxPoint x="393.0008729652601" y="-2142.6776695296635" as="sourcePoint" />
            <Array as="points">
              <mxPoint x="383" y="-2185" />
            </Array>
          </mxGeometry>
        </mxCell>
        <mxCell id="veHx_7h44W6bmEA8SiIX-12" style="edgeStyle=orthogonalEdgeStyle;rounded=0;orthogonalLoop=1;jettySize=auto;html=1;exitX=1;exitY=0.5;exitDx=0;exitDy=0;entryX=0;entryY=0.5;entryDx=0;entryDy=0;" edge="1" parent="1" source="veHx_7h44W6bmEA8SiIX-13" target="veHx_7h44W6bmEA8SiIX-6">
          <mxGeometry relative="1" as="geometry">
            <mxPoint x="409.11" y="-2125" as="sourcePoint" />
          </mxGeometry>
        </mxCell>
        <mxCell id="veHx_7h44W6bmEA8SiIX-13" value="Afrekenen" style="ellipse;whiteSpace=wrap;html=1;" vertex="1" parent="1">
          <mxGeometry x="263" y="-2150" width="110" height="50" as="geometry" />
        </mxCell>
        <mxCell id="veHx_7h44W6bmEA8SiIX-14" value="&amp;lt;&amp;lt;include&amp;gt;&amp;gt;" style="text;html=1;align=center;verticalAlign=middle;whiteSpace=wrap;rounded=0;" vertex="1" parent="1">
          <mxGeometry x="97" y="-2250" width="50" height="30" as="geometry" />
        </mxCell>
        <mxCell id="veHx_7h44W6bmEA8SiIX-15" value="&amp;lt;&amp;lt;extend&amp;gt;&amp;gt;" style="text;html=1;align=center;verticalAlign=middle;whiteSpace=wrap;rounded=0;" vertex="1" parent="1">
          <mxGeometry x="203" y="-2150" width="50" height="25" as="geometry" />
        </mxCell>
        <mxCell id="veHx_7h44W6bmEA8SiIX-16" value="&amp;lt;&amp;lt;include&amp;gt;&amp;gt;" style="text;html=1;align=center;verticalAlign=middle;whiteSpace=wrap;rounded=0;" vertex="1" parent="1">
          <mxGeometry x="203" y="-2255" width="50" height="20" as="geometry" />
        </mxCell>
        <mxCell id="veHx_7h44W6bmEA8SiIX-17" style="rounded=0;orthogonalLoop=1;jettySize=auto;html=1;exitX=1;exitY=0;exitDx=0;exitDy=0;entryX=0;entryY=0.5;entryDx=0;entryDy=0;" edge="1" parent="1" source="veHx_7h44W6bmEA8SiIX-19" target="veHx_7h44W6bmEA8SiIX-5">
          <mxGeometry relative="1" as="geometry">
            <Array as="points">
              <mxPoint x="573" y="-2215" />
            </Array>
          </mxGeometry>
        </mxCell>
        <mxCell id="veHx_7h44W6bmEA8SiIX-18" style="rounded=0;orthogonalLoop=1;jettySize=auto;html=1;exitX=1;exitY=1;exitDx=0;exitDy=0;entryX=0;entryY=0.5;entryDx=0;entryDy=0;" edge="1" parent="1" source="veHx_7h44W6bmEA8SiIX-19" target="veHx_7h44W6bmEA8SiIX-4">
          <mxGeometry relative="1" as="geometry">
            <Array as="points">
              <mxPoint x="573" y="-2155" />
            </Array>
          </mxGeometry>
        </mxCell>
        <mxCell id="veHx_7h44W6bmEA8SiIX-19" value="Leveringsmethode kiezen" style="ellipse;whiteSpace=wrap;html=1;" vertex="1" parent="1">
          <mxGeometry x="453" y="-2210" width="110" height="50" as="geometry" />
        </mxCell>
        <mxCell id="veHx_7h44W6bmEA8SiIX-20" value="&amp;lt;&amp;lt;extend&amp;gt;&amp;gt;" style="text;html=1;align=center;verticalAlign=middle;whiteSpace=wrap;rounded=0;" vertex="1" parent="1">
          <mxGeometry x="383" y="-2090" width="60" height="20" as="geometry" />
        </mxCell>
        <mxCell id="veHx_7h44W6bmEA8SiIX-21" value="&amp;lt;&amp;lt;extend&amp;gt;&amp;gt;" style="text;html=1;align=center;verticalAlign=middle;whiteSpace=wrap;rounded=0;" vertex="1" parent="1">
          <mxGeometry x="573" y="-2240" width="50" height="30" as="geometry" />
        </mxCell>
        <mxCell id="veHx_7h44W6bmEA8SiIX-22" value="&amp;lt;&amp;lt;extend&amp;gt;&amp;gt;" style="text;html=1;align=center;verticalAlign=middle;whiteSpace=wrap;rounded=0;" vertex="1" parent="1">
          <mxGeometry x="573" y="-2180" width="50" height="30" as="geometry" />
        </mxCell>
        <mxCell id="veHx_7h44W6bmEA8SiIX-23" value="Account aanmaken" style="ellipse;whiteSpace=wrap;html=1;" vertex="1" parent="1">
          <mxGeometry x="453" y="-2280" width="110" height="50" as="geometry" />
        </mxCell>
        <mxCell id="veHx_7h44W6bmEA8SiIX-24" value="&amp;lt;&amp;lt;extend&amp;gt;&amp;gt;" style="text;html=1;align=center;verticalAlign=middle;whiteSpace=wrap;rounded=0;" vertex="1" parent="1">
          <mxGeometry x="383" y="-2150" width="60" height="25" as="geometry" />
        </mxCell>
        <mxCell id="veHx_7h44W6bmEA8SiIX-25" value="&amp;lt;&amp;lt;extend&amp;gt;&amp;gt;" style="text;html=1;align=center;verticalAlign=middle;whiteSpace=wrap;rounded=0;" vertex="1" parent="1">
          <mxGeometry x="383" y="-2210" width="60" height="30" as="geometry" />
        </mxCell>
        <mxCell id="veHx_7h44W6bmEA8SiIX-26" value="&amp;lt;&amp;lt;extend&amp;gt;&amp;gt;" style="text;html=1;align=center;verticalAlign=middle;whiteSpace=wrap;rounded=0;" vertex="1" parent="1">
          <mxGeometry x="388" y="-2280" width="50" height="25" as="geometry" />
        </mxCell>
      </root>
    </mxGraphModel>
  </diagram>
</mxfile>
